<svg viewBox="0 0 50 50" width="25px" height="25px">
<g id="surface1792534">
<path style=" stroke:none;fill-rule:nonzero;fill:rgb(0%,0%,0%);fill-opacity:1;" d="M 29.664062 0.246094 C 29.878906 0.4375 30.003906 0.710938 30 1 L 30 6 L 47 6 C 48.09375 6 49 6.90625 49 8 L 49 42 C 49 43.09375 48.09375 44 47 44 L 30 44 L 30 49 C 29.996094 49.296875 29.859375 49.574219 29.632812 49.761719 C 29.402344 49.949219 29.101562 50.023438 28.8125 49.96875 L 7.261719 45.878906 C 6.660156 44.972656 5.933594 44.152344 5.113281 43.4375 L 28 47.8125 L 28 43.21875 C 27.972656 43.085938 27.972656 42.945312 28 42.8125 L 28 7.40625 C 27.867188 7.128906 27.867188 6.808594 28 6.53125 L 28 2.1875 L 2 7.15625 L 2 41.476562 C 1.359375 41.203125 0.691406 40.976562 0 40.816406 L 0 6.34375 C -0.0078125 5.855469 0.335938 5.433594 0.8125 5.34375 L 28.8125 0.03125 C 28.832031 0.0195312 28.855469 0.0078125 28.875 0 C 29.160156 -0.0351562 29.449219 0.0546875 29.664062 0.246094 Z M 30 13 L 34 13 L 34 15 L 30 15 L 30 20 L 34 20 L 34 22 L 30 22 L 30 27 L 34 27 L 34 29 L 30 29 L 30 35 L 34 35 L 34 37 L 30 37 L 30 42 L 47 42 L 47 8 L 30 8 Z M 44 13 L 44 15 L 36 15 L 36 13 Z M 11.8125 15.6875 L 14.5 21.28125 C 14.710938 21.722656 14.898438 22.265625 15.0625 22.875 L 15.09375 22.875 C 15.199219 22.511719 15.402344 21.941406 15.6875 21.21875 L 18.65625 15.6875 L 23.34375 15.6875 L 17.75 24.9375 L 23.5 34.375 L 18.53125 34.375 L 15.28125 28.28125 C 15.160156 28.054688 15.035156 27.640625 14.90625 27.03125 L 14.875 27.03125 C 14.8125 27.316406 14.664062 27.761719 14.4375 28.34375 L 11.1875 34.375 L 6.1875 34.375 L 12.15625 25.03125 L 6.6875 15.6875 Z M 44 20 L 44 22 L 36 22 L 36 20 Z M 44 27 L 44 29 L 36 29 L 36 27 Z M 44 35 L 44 37 L 36 37 L 36 35 Z M 44 35 "/>
<path style=" stroke:none;fill-rule:nonzero;fill:rgb(80.000001%,80.000001%,80.000001%);fill-opacity:1;" d="M 3.167969 52.5 C 3.167969 53.101562 2.765625 53.5 2.167969 53.5 L -1.734375 53.5 L -1.734375 57.398438 C -1.734375 58 -2.132812 58.398438 -2.734375 58.398438 C -3.332031 58.398438 -3.734375 58 -3.734375 57.398438 L -3.734375 53.5 L -7.632812 53.5 C -8.234375 53.5 -8.632812 53.101562 -8.632812 52.5 C -8.632812 51.898438 -8.234375 51.5 -7.632812 51.5 L -3.734375 51.5 L -3.734375 47.601562 C -3.734375 47 -3.332031 46.601562 -2.734375 46.601562 C -2.132812 46.601562 -1.734375 47 -1.734375 47.601562 L -1.734375 51.5 L 2.167969 51.5 C 2.765625 51.5 3.167969 51.898438 3.167969 52.5 Z M 7.265625 52.5 C 7.265625 58 2.765625 62.5 -2.734375 62.5 C -8.234375 62.5 -12.734375 58 -12.734375 52.5 C -12.734375 47 -8.234375 42.5 -2.734375 42.5 C 2.765625 42.5 7.265625 47 7.265625 52.5 Z M 5.265625 52.5 C 5.265625 48.101562 1.667969 44.5 -2.734375 44.5 C -7.132812 44.5 -10.734375 48.101562 -10.734375 52.5 C -10.734375 56.898438 -7.132812 60.5 -2.734375 60.5 C 1.667969 60.5 5.265625 56.898438 5.265625 52.5 Z M 5.265625 52.5 "/>
</g>
</svg>