<svg width="97" height="30" viewBox="0 0 84 26" fill="none" xmlns="http://www.w3.org/2000/svg">
<g clip-path="url(#clip0_2_11)">
<path d="M25.5314 20C24.3581 20 23.6181 19.6933 23.3114 19.08C23.2447 18.9467 23.2114 18.8267 23.2114 18.72V5.02H24.6114V18.58C24.6114 18.9667 24.6847 19.2667 24.8314 19.48C24.9914 19.68 25.1514 19.7867 25.3114 19.8L25.5314 19.84H26.1514V20H25.5314ZM29.3088 20C28.7621 20 28.3421 19.88 28.0488 19.64C27.7688 19.4 27.6221 19.16 27.6088 18.92L27.5888 18.58V10H28.9888V18.58C28.9888 18.9667 29.0621 19.2667 29.2088 19.48C29.3688 19.68 29.5221 19.7867 29.6688 19.8L29.9088 19.84H30.5288V20H29.3088ZM27.7088 7.76C27.5488 7.6 27.4688 7.4 27.4688 7.16C27.4688 6.92 27.5488 6.72 27.7088 6.56C27.8688 6.38667 28.0688 6.3 28.3088 6.3C28.5488 6.3 28.7488 6.38667 28.9088 6.56C29.0821 6.72 29.1688 6.92 29.1688 7.16C29.1688 7.4 29.0821 7.6 28.9088 7.76C28.7488 7.92 28.5488 8 28.3088 8C28.0688 8 27.8688 7.92 27.7088 7.76ZM31.7414 5.02H33.1414V12.48C33.3681 11.8667 33.7881 11.2867 34.4014 10.74C35.0147 10.1933 35.7081 9.92 36.4814 9.92C39.1881 9.92 40.5414 11.5067 40.5414 14.68C40.5414 18.28 38.7947 20.08 35.3014 20.08C34.2747 20.08 33.0881 19.9133 31.7414 19.58V5.02ZM36.4614 10.08C35.6347 10.08 34.8881 10.44 34.2214 11.16C33.5547 11.8667 33.1947 12.5067 33.1414 13.08V19.46C33.9547 19.7667 34.6681 19.92 35.2814 19.92C37.8547 19.92 39.1414 18.1667 39.1414 14.66C39.1414 11.6067 38.2481 10.08 36.4614 10.08ZM45.952 10.86V10.44C45.352 10.68 44.8054 11.1667 44.312 11.9C43.8187 12.62 43.5587 13.3 43.532 13.94V20H42.132V10H43.532V13.18C43.7454 12.4067 44.152 11.68 44.752 11C45.352 10.3067 46.032 9.94667 46.792 9.92H46.872C47.1387 9.92 47.3587 10.0133 47.532 10.2C47.7187 10.3733 47.812 10.5933 47.812 10.86C47.812 11.1267 47.7187 11.3467 47.532 11.52C47.3587 11.6933 47.1387 11.78 46.872 11.78C46.6054 11.78 46.3854 11.6933 46.212 11.52C46.0387 11.3467 45.952 11.1267 45.952 10.86ZM56.9741 20C56.0674 20 55.4474 19.8267 55.1141 19.48C54.8074 19.1867 54.6541 18.9333 54.6541 18.72V18.3C54.0007 19.4867 52.9541 20.08 51.5141 20.08C49.8341 20.08 48.8807 19.32 48.6541 17.8C48.6274 17.64 48.6141 17.48 48.6141 17.32C48.6141 17.1467 48.6407 16.96 48.6941 16.76C48.7474 16.56 48.9007 16.34 49.1541 16.1C49.6607 15.62 50.7741 15.3267 52.4941 15.22C52.9207 15.18 53.3141 15.16 53.6741 15.16C54.0341 15.16 54.3607 15.1733 54.6541 15.2V11.88C54.6274 11.8667 54.6274 11.8067 54.6541 11.7C54.6807 11.58 54.6541 11.4333 54.5741 11.26C54.5074 11.0733 54.4141 10.8933 54.2941 10.72C54.1741 10.5467 53.9607 10.4 53.6541 10.28C53.3474 10.1467 52.9474 10.08 52.4541 10.08C51.9607 10.08 51.3807 10.1733 50.7141 10.36C50.0607 10.5333 49.5807 10.7067 49.2741 10.88L49.1941 10.74C50.3807 10.1933 51.5874 9.92 52.8141 9.92C54.1874 9.92 55.0941 10.1667 55.5341 10.66C55.8807 11.0467 56.0541 11.4533 56.0541 11.88V18.58C56.0541 18.9667 56.1274 19.2667 56.2741 19.48C56.4341 19.68 56.5941 19.7867 56.7541 19.8L56.9741 19.84H57.5941V20H56.9741ZM51.8341 19.92C52.5407 19.92 53.1741 19.68 53.7341 19.2C54.3074 18.7067 54.6141 18.2333 54.6541 17.78V15.36C54.2941 15.3333 53.9274 15.32 53.5541 15.32C53.1941 15.32 52.8341 15.34 52.4741 15.38C51.4607 15.5 50.8007 15.7267 50.4941 16.06C50.1874 16.3933 50.0341 16.8533 50.0341 17.44C50.0341 17.5467 50.0407 17.6667 50.0541 17.8C50.1741 19.2133 50.7674 19.92 51.8341 19.92ZM62.5145 10.86V10.44C61.9145 10.68 61.3679 11.1667 60.8745 11.9C60.3812 12.62 60.1212 13.3 60.0945 13.94V20H58.6945V10H60.0945V13.18C60.3079 12.4067 60.7145 11.68 61.3145 11C61.9145 10.3067 62.5945 9.94667 63.3545 9.92H63.4345C63.7012 9.92 63.9212 10.0133 64.0945 10.2C64.2812 10.3733 64.3745 10.5933 64.3745 10.86C64.3745 11.1267 64.2812 11.3467 64.0945 11.52C63.9212 11.6933 63.7012 11.78 63.4345 11.78C63.1679 11.78 62.9479 11.6933 62.7745 11.52C62.6012 11.3467 62.5145 11.1267 62.5145 10.86ZM68.342 23.58C67.9154 24.5267 67.3887 25 66.762 25C66.482 25 66.1554 24.9533 65.782 24.86V24.7C66.0887 24.78 66.362 24.82 66.602 24.82C67.282 24.82 67.802 24.4067 68.162 23.58L69.842 20H69.822L66.102 10H67.502L70.602 18.34L73.662 12C73.822 11.72 73.902 11.3867 73.902 11C73.902 10.6133 73.7954 10.32 73.582 10.12L73.702 10C73.7554 10.0267 73.822 10.1067 73.902 10.24C73.9954 10.3733 74.0487 10.4933 74.062 10.6C74.0887 10.7067 74.102 10.8067 74.102 10.9C74.102 11.26 74.022 11.6267 73.862 12L70.022 20L68.342 23.58Z" fill="#02122B"/>
<g clip-path="url(#clip1_2_11)">
<path d="M4.5 3H18V23H4.5C3.83696 23 3.20107 22.7366 2.73223 22.2678C2.26339 21.7989 2 21.163 2 20.5V5.5C2 4.83696 2.26339 4.20107 2.73223 3.73223C3.20107 3.26339 3.83696 3 4.5 3V3Z" stroke="#02122B" stroke-width="2" stroke-linecap="round" stroke-linejoin="round"/>
<path d="M2 21C2 20.4696 2.32924 19.9609 2.91529 19.5858C3.50134 19.2107 4.2962 19 5.125 19H22" stroke="#02122B" stroke-width="2" stroke-linecap="round" stroke-linejoin="round"/>
</g>
</g>
<defs>
<clipPath id="clip0_2_11">
<rect width="84" height="26" fill="white"/>
</clipPath>
<clipPath id="clip1_2_11">
<rect width="24" height="24" fill="white" transform="translate(-2 2)"/>
</clipPath>
</defs>
</svg>
